<svg width="37" height="37" viewBox="0 0 37 37" fill="none" xmlns="http://www.w3.org/2000/svg">
<path d="M37 18.5002C37 28.7171 28.7173 36.9998 18.5 36.9998C8.2829 36.9998 0 28.7171 0 18.5002C0 8.28273 8.2829 0 18.5 0C28.7173 0 37 8.28273 37 18.5002Z" fill="white"/>
<path d="M23.5126 30.9855H13.4885C9.03958 30.9855 5.41992 27.3655 5.41992 22.9168V14.0834C5.41992 9.63447 9.03942 6.01465 13.4885 6.01465H23.5126C27.9612 6.01465 31.5809 9.63447 31.5809 14.0834V22.9168C31.5807 27.3655 27.9612 30.9855 23.5126 30.9855ZM13.4883 7.80794C10.028 7.80794 7.21288 10.6231 7.21288 14.0834V22.9168C7.21288 26.3771 10.028 29.192 13.4883 29.192H23.5125C26.9724 29.192 29.7877 26.3771 29.7877 22.9168V14.0834C29.7877 10.6231 26.9724 7.80794 23.5125 7.80794H13.4883Z" fill="#02386A"/>
<path d="M18.5004 25.6828C14.5401 25.6828 11.3184 22.4607 11.3184 18.5007C11.3184 14.54 14.54 11.3184 18.5004 11.3184C22.4607 11.3184 25.6826 14.54 25.6826 18.5007C25.6826 22.4605 22.4607 25.6828 18.5004 25.6828ZM18.5004 13.1113C15.5287 13.1113 13.1115 15.5289 13.1115 18.5007C13.1115 21.4721 15.5289 23.8896 18.5004 23.8896C21.4719 23.8896 23.8895 21.4721 23.8895 18.5007C23.8895 15.5289 21.4719 13.1113 18.5004 13.1113Z" fill="#02386A"/>
<path d="M27.0624 11.5394C27.0624 12.362 26.3954 13.0292 25.5722 13.0292C24.7489 13.0292 24.082 12.3618 24.082 11.5394C24.082 10.7159 24.7491 10.0488 25.5722 10.0488C26.3954 10.049 27.0624 10.7159 27.0624 11.5394Z" fill="#02386A"/>
</svg>
