<svg width="37" height="37" viewBox="0 0 37 37" fill="none" xmlns="http://www.w3.org/2000/svg">
<path d="M37.0078 18.5002C37.0078 28.7174 28.7249 37 18.5077 37C8.29088 37 0.0078125 28.7174 0.0078125 18.5002C0.0078125 8.28273 8.29088 0 18.5077 0C28.7249 0 37.0078 8.28273 37.0078 18.5002Z" fill="white"/>
<path d="M29.4702 12.1009C28.9927 12.2331 28.6166 12.2124 28.6166 12.2124L28.6319 12.1217C29.0765 11.7654 30.1983 10.6731 30.3463 10.1625C30.4105 9.94136 30.3345 9.86546 30.334 9.85805L28.9014 10.4665L27.7024 11.0073C26.875 10.1312 25.6225 9.57324 24.2217 9.57324C21.7294 9.57324 19.7086 11.3387 19.7086 13.5169C19.7086 13.9155 19.7682 14.6425 19.8936 15.005C19.8936 15.119 19.8981 14.8905 19.8936 15.005C18.2885 14.9608 16.2313 14.3027 14.3993 13.3745C10.7859 11.5437 10.5597 10.2767 10.5597 10.2767C9.9926 10.8789 9.69923 12.8745 10.2749 14.4393C10.6429 15.4407 11.9089 16.3399 11.9089 16.3399C11.9089 16.3399 11.3429 16.3503 10.7501 16.1495C10.1567 15.9491 9.93284 15.7504 9.93284 15.7504C9.58021 16.6104 10.2879 18.1462 11.5103 19.2477C12.223 19.8904 13.5247 20.293 13.5247 20.293L11.491 20.3507C11.377 22.3271 15.6365 23.501 15.6365 23.501C14.3881 24.4616 12.9394 25.0464 11.3867 25.0464C10.5818 25.0464 9.80443 24.9261 9.06641 24.7056C11.1177 26.3959 13.754 27.5626 16.621 27.4119C24.2263 27.0124 28.5196 20.4747 28.7241 14.0541L28.7341 14.0671C28.7341 14.0671 29.0902 13.8894 29.8521 13.1274C30.6137 12.3656 31.0878 11.474 31.0878 11.474C31.0878 11.474 29.9484 11.9691 29.4702 12.1009Z" fill="#02386A"/>
<path d="M30.334 9.85742C30.334 9.86944 30.3397 9.97892 30.334 9.85742V9.85742Z" fill="#02386A"/>
</svg>
