<svg width="38" height="37" viewBox="0 0 38 37" fill="none" xmlns="http://www.w3.org/2000/svg">
<path d="M37.9258 18.5002C37.9258 8.28273 29.6429 0 19.4258 0C9.20868 0 0.925781 8.28273 0.925781 18.5002C0.925781 28.7171 9.20868 36.9998 19.4258 36.9998C19.4788 36.9998 19.5311 36.9962 19.5842 36.9962V24.0901H15.1298V18.9313H19.5842V15.1274C19.5842 10.7128 22.2804 8.30874 26.218 8.30874C28.1048 8.30874 29.7262 8.44933 30.1987 8.51189V13.1257L27.467 13.1269C25.3254 13.1269 24.9112 14.1445 24.9112 15.6378V18.9312H30.0189L29.3538 24.0899H24.9112V36.1729C32.4498 33.8355 37.9258 26.8074 37.9258 18.5002Z" fill="white"/>
<path d="M29.3548 24.0898L30.0199 18.931H24.9122V15.6376C24.9122 14.1441 25.3266 13.1267 27.468 13.1267L30.1997 13.1256V8.51175C29.7272 8.44919 28.1058 8.30859 26.219 8.30859C22.2814 8.30859 19.5852 10.7125 19.5852 15.1273V18.9312H15.1309V24.0899H19.5852V36.9961C21.4384 36.9803 23.2271 36.695 24.912 36.1729V24.0899H29.3548V24.0898Z" fill="#02386A"/>
</svg>
