<svg width="38" height="37" viewBox="0 0 38 37" fill="none" xmlns="http://www.w3.org/2000/svg">
<path d="M19.2994 36.895C16.0704 36.895 12.9033 36.0409 10.0982 34.419L2.91072 36.895L4.38809 29.2842C2.07228 26.1106 0.851562 22.3773 0.851562 18.4478C0.851562 8.27549 9.12738 0 19.2994 0C29.4727 0 37.7475 8.27549 37.7475 18.4478C37.7475 28.6195 29.4727 36.895 19.2994 36.895Z" fill="white"/>
<path d="M19.2998 30.4994C17.1906 30.4994 15.1213 29.941 13.289 28.8813L8.59355 30.4994L9.5581 25.5269C8.04567 23.4534 7.24805 21.0149 7.24805 18.4472C7.24805 11.8019 12.6544 6.39551 19.2998 6.39551C25.9456 6.39551 31.352 11.8019 31.352 18.4472C31.352 25.0929 25.9456 30.4994 19.2998 30.4994ZM13.5054 26.9104L13.8685 27.1377C15.5051 28.1639 17.3835 28.7061 19.2996 28.7061C24.957 28.7061 29.559 24.1041 29.559 18.4472C29.559 12.7908 24.957 8.18879 19.2996 8.18879C13.6432 8.18879 9.04117 12.7908 9.04117 18.4472C9.04117 20.7487 9.79516 22.9295 11.2202 24.7533L11.4722 25.0754L10.9448 27.7925L13.5054 26.9104Z" fill="#02386A"/>
<path d="M13.2152 13.8167C13.2152 13.8167 13.9228 12.5807 14.499 12.5101C15.0755 12.4391 15.8178 12.4391 16.0177 12.816C16.218 13.1925 17.1123 15.3827 17.1123 15.3827C17.1123 15.3827 17.2659 15.7593 17.0304 16.1245C16.795 16.4893 16.2653 17.0189 16.2653 17.0189C16.2653 17.0189 15.9709 17.3956 16.2653 17.7961C16.5596 18.196 17.0161 18.932 17.9608 19.8755C18.9037 20.8196 20.715 21.4928 20.715 21.4928C20.715 21.4928 20.9743 21.5279 21.1394 21.3632C21.3037 21.1984 22.1989 20.08 22.1989 20.08C22.1989 20.08 22.486 19.7094 22.9636 19.927C23.4402 20.1447 25.5063 21.1749 25.5063 21.1749C25.5063 21.1749 25.748 21.263 25.748 21.628C25.748 21.9928 25.6003 22.8859 25.2984 23.1876C24.9963 23.4899 24.1137 24.4205 22.7868 24.4205C21.4602 24.4205 18.301 23.3409 16.6176 21.6578C14.9341 19.974 13.4393 18.2666 13.0865 16.7132C12.733 15.1591 12.7804 14.4568 13.2152 13.8167Z" fill="#02386A"/>
</svg>
